<svg width="430" height="515" viewBox="0 0 430 515" fill="none" xmlns="http://www.w3.org/2000/svg">
<g opacity="0.04" filter="url(#filter0_f_587_1221)">
<path fill-rule="evenodd" clip-rule="evenodd" d="M406 272.226L405.84 274.716L405.492 277.198L404.958 279.666L404.239 282.114L403.341 284.534L402.266 286.923L401.021 289.273L399.611 291.58L398.045 293.84L396.329 296.047L394.473 298.197L392.485 300.288L390.377 302.316L388.158 304.279L385.839 306.175L383.43 308.003L380.944 309.761L378.391 311.451L375.782 313.071L373.127 314.623L370.437 316.107L367.721 317.525L364.987 318.879L362.245 320.17L359.502 321.4L356.766 322.573L354.043 323.69L351.339 324.755L348.661 325.769L346.013 326.736L343.399 327.659L340.825 328.541L338.295 329.386L335.811 330.196L333.379 330.975L331.002 331.726L328.682 332.455L326.424 333.164L324.23 333.857L322.103 334.54L320.047 335.216L318.063 335.89L316.155 336.566L314.323 337.249L312.57 337.944L310.898 338.655L309.308 339.387L307.801 340.145L306.376 340.933L305.036 341.756L303.779 342.618L302.604 343.522L301.511 344.474L300.499 345.476L299.566 346.533L298.708 347.646L297.924 348.818L297.211 350.053L296.565 351.351L295.983 352.714L295.459 354.143L294.991 355.639L294.572 357.201L294.197 358.829L293.863 360.522L293.562 362.279L293.289 364.097L293.039 365.974L292.805 367.906L292.582 369.891L292.363 371.924L292.144 374.001L291.917 376.118L291.677 378.268L291.419 380.446L291.137 382.648L290.826 384.865L290.482 387.094L290.099 389.326L289.674 391.555L289.203 393.775L288.682 395.979L288.109 398.161L287.48 400.314L286.793 402.432L286.047 404.509L285.241 406.538L284.373 408.515L283.443 410.434L282.451 412.291L281.398 414.08L280.284 415.799L279.11 417.444L277.879 419.012L276.592 420.5L275.251 421.908L273.858 423.234L272.418 424.478L270.931 425.639L269.402 426.718L267.834 427.717L266.229 428.638L264.592 429.481L262.926 430.251L261.233 430.95L259.518 431.581L257.782 432.147L256.029 432.652L254.262 433.101L252.484 433.495L250.695 433.839L248.899 434.135L247.097 434.385L245.29 434.593L243.48 434.757L241.668 434.88L239.854 434.961L238.04 435L236.225 434.995L234.411 434.945L232.599 434.848L230.788 434.702L228.981 434.507L227.177 434.259L225.378 433.958L223.585 433.602L221.798 433.191L220.021 432.724L218.252 432.2L216.495 431.62L214.749 430.984L213.018 430.293L211.301 429.549L209.6 428.752L207.917 427.906L206.253 427.013L204.607 426.075L202.983 425.096L201.38 424.079L199.798 423.028L198.239 421.946L196.703 420.839L195.19 419.71L193.699 418.564L192.231 417.405L190.786 416.237L189.361 415.066L187.958 413.895L186.574 412.73L185.209 411.575L183.862 410.433L182.53 409.31L181.212 408.209L179.907 407.134L178.613 406.088L177.327 405.075L176.047 404.099L174.772 403.162L173.499 402.266L172.225 401.414L170.948 400.609L169.666 399.852L168.376 399.145L167.076 398.489L165.763 397.885L164.435 397.333L163.089 396.836L161.722 396.392L160.333 396.001L158.919 395.665L157.478 395.381L156.007 395.15L154.504 394.971L152.966 394.842L151.393 394.762L149.782 394.73L148.131 394.745L146.439 394.803L144.703 394.905L142.922 395.046L141.095 395.226L139.22 395.441L137.297 395.69L135.323 395.969L133.299 396.277L131.223 396.609L129.095 396.963L126.914 397.336L124.68 397.725L122.393 398.126L120.053 398.536L117.66 398.951L115.215 399.368L112.719 399.783L110.172 400.191L107.576 400.59L104.932 400.974L102.242 401.34L99.5083 401.683L96.7337 401.999L93.921 402.282L91.0735 402.529L88.195 402.734L85.2901 402.891L82.3642 402.996L79.4233 403.041L76.4744 403.021L73.5253 402.928L70.5842 402.757L67.6603 402.501L64.7632 402.153L61.903 401.707L59.0901 401.158L56.3349 400.499L53.6482 399.727L51.0404 398.839L48.522 397.829L46.1031 396.698L43.7934 395.442L41.6023 394.061L39.5385 392.556L37.6103 390.928L35.8251 389.177L34.1896 387.308L32.71 385.324L31.3914 383.228L30.238 381.026L29.2533 378.722L28.4398 376.323L27.7989 373.836L27.3313 371.267L27.0366 368.623L26.9136 365.913L26.9599 363.144L27.1724 360.324L27.5471 357.461L28.079 354.565L28.7624 351.642L29.5906 348.701L30.5564 345.751L31.6516 342.798L32.8676 339.851L34.1951 336.917L35.6241 334.002L37.1442 331.114L38.7447 328.258L40.4143 325.44L42.1416 322.665L43.9147 319.938L45.7218 317.262L47.551 314.642L49.3901 312.079L51.2271 309.576L53.0502 307.136L54.8476 304.758L56.6078 302.443L58.3198 300.191L59.9726 298.002L61.5559 295.873L63.0598 293.803L64.4751 291.789L65.7929 289.828L67.0052 287.918L68.1046 286.054L69.0843 284.232L69.9387 282.446L70.6624 280.694L71.2514 278.968L71.7022 277.264L72.0122 275.576L72.1799 273.899L72.2045 272.226L72.0861 270.552L71.8257 268.871L71.4253 267.177L70.8876 265.465L70.2162 263.73L69.4156 261.966L68.491 260.168L67.4483 258.332L66.2943 256.453L65.0362 254.528L63.682 252.553L62.2403 250.525L60.7201 248.442L59.1308 246.302L57.4824 244.102L55.785 241.842L54.049 239.522L52.2851 237.141L50.5041 234.701L48.7167 232.202L46.9338 229.645L45.1658 227.034L43.4225 224.369L41.7129 221.655L40.0453 218.893L38.427 216.087L36.8648 213.24L35.3652 210.356L33.9346 207.437L32.5796 204.488L31.3062 201.514L30.1203 198.518L29.0271 195.506L28.0318 192.483L27.1386 189.452L26.3515 186.42L25.6738 183.39L25.1081 180.369L24.6566 177.36L24.3209 174.368L24.1019 171.397L24 168.453L24.0151 165.538L24.1467 162.657L24.3935 159.813L24.7541 157.01L25.2265 154.251L25.8084 151.537L26.4971 148.873L27.2898 146.26L28.1832 143.699L29.1739 141.194L30.2584 138.744L31.433 136.352L32.6938 134.018L34.0371 131.743L35.4589 129.527L36.9554 127.371L38.5227 125.275L40.157 123.238L41.8546 121.262L43.6119 119.345L45.4252 117.488L47.2914 115.689L49.207 113.95L51.1691 112.268L53.1747 110.645L55.2211 109.079L57.3056 107.571L59.4259 106.119L61.5798 104.725L63.765 103.387L65.9798 102.105L68.2222 100.881L70.4908 99.7132L72.784 98.6027L75.1003 97.5499L77.4386 96.5552L79.7977 95.6193L82.1765 94.743L84.5739 93.927L86.9891 93.1724L89.4209 92.4803L91.8687 91.8516L94.3314 91.2878L96.8081 90.7899L99.298 90.3593L101.8 89.9973L104.313 89.7052L106.837 89.4843L109.369 89.3358L111.91 89.261L114.456 89.2608L117.009 89.3363L119.564 89.4882L122.123 89.7174L124.681 90.0242L127.239 90.4089L129.794 90.8716L132.344 91.4122L134.887 92.03L137.422 92.7245L139.946 93.4946L142.456 94.3388L144.952 95.2557L147.43 96.2431L149.888 97.2989L152.325 98.4204L154.737 99.6048L157.124 100.849L159.483 102.15L161.812 103.503L164.108 104.904L166.371 106.347L168.597 107.825L170.785 109.329L172.932 110.85L175.037 112.378L177.099 113.902L179.116 115.411L181.088 116.896L183.015 118.347L184.898 119.751L186.737 121.101L188.534 122.385L190.289 123.595L192.007 124.721L193.688 125.755L195.336 126.689L196.954 127.515L198.546 128.226L200.115 128.817L201.666 129.282L203.202 129.616L204.73 129.816L206.253 129.877L207.775 129.8L209.303 129.581L210.842 129.221L212.395 128.72L213.967 128.081L215.565 127.304L217.191 126.394L218.852 125.355L220.55 124.192L222.289 122.91L224.074 121.517L225.908 120.02L227.793 118.427L229.731 116.747L231.726 114.991L233.778 113.168L235.888 111.288L238.057 109.364L240.284 107.407L242.57 105.429L244.912 103.442L247.31 101.458L249.76 99.4915L252.26 97.554L254.807 95.6585L257.397 93.8176L260.024 92.0439L262.685 90.3495L265.373 88.7464L268.083 87.2462L270.808 85.86L273.542 84.5983L276.278 83.4712L279.008 82.4878L281.726 81.6569L284.423 80.9861L287.091 80.4825L289.723 80.1521L292.311 80L294.848 80.0304L297.325 80.2466L299.735 80.6505L302.071 81.2433L304.327 82.0251L306.495 82.9947L308.57 84.1502L310.547 85.4882L312.42 87.0047L314.186 88.6944L315.841 90.5512L317.382 92.568L318.807 94.7368L320.115 97.0489L321.305 99.4948L322.378 102.064L323.335 104.747L324.178 107.531L324.91 110.406L325.535 113.359L326.056 116.379L326.479 119.454L326.809 122.572L327.052 125.722L327.215 128.893L327.303 132.074L327.323 135.257L327.282 138.432L327.187 141.591L327.044 144.724L326.862 147.826L326.648 150.887L326.409 153.902L326.153 156.865L325.889 159.769L325.623 162.61L325.363 165.384L325.118 168.086L324.895 170.712L324.701 173.261L324.545 175.729L324.434 178.116L324.376 180.418L324.376 182.636L324.443 184.769L324.583 186.818L324.802 188.782L325.107 190.665L325.502 192.467L325.992 194.191L326.583 195.84L327.278 197.417L328.08 198.925L328.992 200.37L330.016 201.756L331.154 203.087L332.406 204.37L333.772 205.609L335.252 206.811L336.843 207.982L338.543 209.128L340.35 210.256L342.258 211.371L344.264 212.482L346.362 213.593L348.546 214.712L350.809 215.845L353.143 216.997L355.541 218.176L357.992 219.386L360.489 220.633L363.022 221.922L365.579 223.257L368.15 224.643L370.725 226.084L373.291 227.582L375.838 229.14L378.353 230.761L380.825 232.446L383.242 234.196L385.593 236.012L387.865 237.893L390.048 239.839L392.131 241.849L394.102 243.92L395.953 246.05L397.672 248.237L399.251 250.476L400.681 252.764L401.955 255.097L403.065 257.469L404.005 259.876L404.77 262.312L405.355 264.771L405.756 267.247L405.972 269.734L406 272.226Z" fill="#FD6F00"/>
<path fill-rule="evenodd" clip-rule="evenodd" d="M406 272.226L405.84 274.716L405.492 277.198L404.958 279.666L404.239 282.114L403.341 284.534L402.266 286.923L401.021 289.273L399.611 291.58L398.045 293.84L396.329 296.047L394.473 298.197L392.485 300.288L390.377 302.316L388.158 304.279L385.839 306.175L383.43 308.003L380.944 309.761L378.391 311.451L375.782 313.071L373.127 314.623L370.437 316.107L367.721 317.525L364.987 318.879L362.245 320.17L359.502 321.4L356.766 322.573L354.043 323.69L351.339 324.755L348.661 325.769L346.013 326.736L343.399 327.659L340.825 328.541L338.295 329.386L335.811 330.196L333.379 330.975L331.002 331.726L328.682 332.455L326.424 333.164L324.23 333.857L322.103 334.54L320.047 335.216L318.063 335.89L316.155 336.566L314.323 337.249L312.57 337.944L310.898 338.655L309.308 339.387L307.801 340.145L306.376 340.933L305.036 341.756L303.779 342.618L302.604 343.522L301.511 344.474L300.499 345.476L299.566 346.533L298.708 347.646L297.924 348.818L297.211 350.053L296.565 351.351L295.983 352.714L295.459 354.143L294.991 355.639L294.572 357.201L294.197 358.829L293.863 360.522L293.562 362.279L293.289 364.097L293.039 365.974L292.805 367.906L292.582 369.891L292.363 371.924L292.144 374.001L291.917 376.118L291.677 378.268L291.419 380.446L291.137 382.648L290.826 384.865L290.482 387.094L290.099 389.326L289.674 391.555L289.203 393.775L288.682 395.979L288.109 398.161L287.48 400.314L286.793 402.432L286.047 404.509L285.241 406.538L284.373 408.515L283.443 410.434L282.451 412.291L281.398 414.08L280.284 415.799L279.11 417.444L277.879 419.012L276.592 420.5L275.251 421.908L273.858 423.234L272.418 424.478L270.931 425.639L269.402 426.718L267.834 427.717L266.229 428.638L264.592 429.481L262.926 430.251L261.233 430.95L259.518 431.581L257.782 432.147L256.029 432.652L254.262 433.101L252.484 433.495L250.695 433.839L248.899 434.135L247.097 434.385L245.29 434.593L243.48 434.757L241.668 434.88L239.854 434.961L238.04 435L236.225 434.995L234.411 434.945L232.599 434.848L230.788 434.702L228.981 434.507L227.177 434.259L225.378 433.958L223.585 433.602L221.798 433.191L220.021 432.724L218.252 432.2L216.495 431.62L214.749 430.984L213.018 430.293L211.301 429.549L209.6 428.752L207.917 427.906L206.253 427.013L204.607 426.075L202.983 425.096L201.38 424.079L199.798 423.028L198.239 421.946L196.703 420.839L195.19 419.71L193.699 418.564L192.231 417.405L190.786 416.237L189.361 415.066L187.958 413.895L186.574 412.73L185.209 411.575L183.862 410.433L182.53 409.31L181.212 408.209L179.907 407.134L178.613 406.088L177.327 405.075L176.047 404.099L174.772 403.162L173.499 402.266L172.225 401.414L170.948 400.609L169.666 399.852L168.376 399.145L167.076 398.489L165.763 397.885L164.435 397.333L163.089 396.836L161.722 396.392L160.333 396.001L158.919 395.665L157.478 395.381L156.007 395.15L154.504 394.971L152.966 394.842L151.393 394.762L149.782 394.73L148.131 394.745L146.439 394.803L144.703 394.905L142.922 395.046L141.095 395.226L139.22 395.441L137.297 395.69L135.323 395.969L133.299 396.277L131.223 396.609L129.095 396.963L126.914 397.336L124.68 397.725L122.393 398.126L120.053 398.536L117.66 398.951L115.215 399.368L112.719 399.783L110.172 400.191L107.576 400.59L104.932 400.974L102.242 401.34L99.5083 401.683L96.7337 401.999L93.921 402.282L91.0735 402.529L88.195 402.734L85.2901 402.891L82.3642 402.996L79.4233 403.041L76.4744 403.021L73.5253 402.928L70.5842 402.757L67.6603 402.501L64.7632 402.153L61.903 401.707L59.0901 401.158L56.3349 400.499L53.6482 399.727L51.0404 398.839L48.522 397.829L46.1031 396.698L43.7934 395.442L41.6023 394.061L39.5385 392.556L37.6103 390.928L35.8251 389.177L34.1896 387.308L32.71 385.324L31.3914 383.228L30.238 381.026L29.2533 378.722L28.4398 376.323L27.7989 373.836L27.3313 371.267L27.0366 368.623L26.9136 365.913L26.9599 363.144L27.1724 360.324L27.5471 357.461L28.079 354.565L28.7624 351.642L29.5906 348.701L30.5564 345.751L31.6516 342.798L32.8676 339.851L34.1951 336.917L35.6241 334.002L37.1442 331.114L38.7447 328.258L40.4143 325.44L42.1416 322.665L43.9147 319.938L45.7218 317.262L47.551 314.642L49.3901 312.079L51.2271 309.576L53.0502 307.136L54.8476 304.758L56.6078 302.443L58.3198 300.191L59.9726 298.002L61.5559 295.873L63.0598 293.803L64.4751 291.789L65.7929 289.828L67.0052 287.918L68.1046 286.054L69.0843 284.232L69.9387 282.446L70.6624 280.694L71.2514 278.968L71.7022 277.264L72.0122 275.576L72.1799 273.899L72.2045 272.226L72.0861 270.552L71.8257 268.871L71.4253 267.177L70.8876 265.465L70.2162 263.73L69.4156 261.966L68.491 260.168L67.4483 258.332L66.2943 256.453L65.0362 254.528L63.682 252.553L62.2403 250.525L60.7201 248.442L59.1308 246.302L57.4824 244.102L55.785 241.842L54.049 239.522L52.2851 237.141L50.5041 234.701L48.7167 232.202L46.9338 229.645L45.1658 227.034L43.4225 224.369L41.7129 221.655L40.0453 218.893L38.427 216.087L36.8648 213.24L35.3652 210.356L33.9346 207.437L32.5796 204.488L31.3062 201.514L30.1203 198.518L29.0271 195.506L28.0318 192.483L27.1386 189.452L26.3515 186.42L25.6738 183.39L25.1081 180.369L24.6566 177.36L24.3209 174.368L24.1019 171.397L24 168.453L24.0151 165.538L24.1467 162.657L24.3935 159.813L24.7541 157.01L25.2265 154.251L25.8084 151.537L26.4971 148.873L27.2898 146.26L28.1832 143.699L29.1739 141.194L30.2584 138.744L31.433 136.352L32.6938 134.018L34.0371 131.743L35.4589 129.527L36.9554 127.371L38.5227 125.275L40.157 123.238L41.8546 121.262L43.6119 119.345L45.4252 117.488L47.2914 115.689L49.207 113.95L51.1691 112.268L53.1747 110.645L55.2211 109.079L57.3056 107.571L59.4259 106.119L61.5798 104.725L63.765 103.387L65.9798 102.105L68.2222 100.881L70.4908 99.7132L72.784 98.6027L75.1003 97.5499L77.4386 96.5552L79.7977 95.6193L82.1765 94.743L84.5739 93.927L86.9891 93.1724L89.4209 92.4803L91.8687 91.8516L94.3314 91.2878L96.8081 90.7899L99.298 90.3593L101.8 89.9973L104.313 89.7052L106.837 89.4843L109.369 89.3358L111.91 89.261L114.456 89.2608L117.009 89.3363L119.564 89.4882L122.123 89.7174L124.681 90.0242L127.239 90.4089L129.794 90.8716L132.344 91.4122L134.887 92.03L137.422 92.7245L139.946 93.4946L142.456 94.3388L144.952 95.2557L147.43 96.2431L149.888 97.2989L152.325 98.4204L154.737 99.6048L157.124 100.849L159.483 102.15L161.812 103.503L164.108 104.904L166.371 106.347L168.597 107.825L170.785 109.329L172.932 110.85L175.037 112.378L177.099 113.902L179.116 115.411L181.088 116.896L183.015 118.347L184.898 119.751L186.737 121.101L188.534 122.385L190.289 123.595L192.007 124.721L193.688 125.755L195.336 126.689L196.954 127.515L198.546 128.226L200.115 128.817L201.666 129.282L203.202 129.616L204.73 129.816L206.253 129.877L207.775 129.8L209.303 129.581L210.842 129.221L212.395 128.72L213.967 128.081L215.565 127.304L217.191 126.394L218.852 125.355L220.55 124.192L222.289 122.91L224.074 121.517L225.908 120.02L227.793 118.427L229.731 116.747L231.726 114.991L233.778 113.168L235.888 111.288L238.057 109.364L240.284 107.407L242.57 105.429L244.912 103.442L247.31 101.458L249.76 99.4915L252.26 97.554L254.807 95.6585L257.397 93.8176L260.024 92.0439L262.685 90.3495L265.373 88.7464L268.083 87.2462L270.808 85.86L273.542 84.5983L276.278 83.4712L279.008 82.4878L281.726 81.6569L284.423 80.9861L287.091 80.4825L289.723 80.1521L292.311 80L294.848 80.0304L297.325 80.2466L299.735 80.6505L302.071 81.2433L304.327 82.0251L306.495 82.9947L308.57 84.1502L310.547 85.4882L312.42 87.0047L314.186 88.6944L315.841 90.5512L317.382 92.568L318.807 94.7368L320.115 97.0489L321.305 99.4948L322.378 102.064L323.335 104.747L324.178 107.531L324.91 110.406L325.535 113.359L326.056 116.379L326.479 119.454L326.809 122.572L327.052 125.722L327.215 128.893L327.303 132.074L327.323 135.257L327.282 138.432L327.187 141.591L327.044 144.724L326.862 147.826L326.648 150.887L326.409 153.902L326.153 156.865L325.889 159.769L325.623 162.61L325.363 165.384L325.118 168.086L324.895 170.712L324.701 173.261L324.545 175.729L324.434 178.116L324.376 180.418L324.376 182.636L324.443 184.769L324.583 186.818L324.802 188.782L325.107 190.665L325.502 192.467L325.992 194.191L326.583 195.84L327.278 197.417L328.08 198.925L328.992 200.37L330.016 201.756L331.154 203.087L332.406 204.37L333.772 205.609L335.252 206.811L336.843 207.982L338.543 209.128L340.35 210.256L342.258 211.371L344.264 212.482L346.362 213.593L348.546 214.712L350.809 215.845L353.143 216.997L355.541 218.176L357.992 219.386L360.489 220.633L363.022 221.922L365.579 223.257L368.15 224.643L370.725 226.084L373.291 227.582L375.838 229.14L378.353 230.761L380.825 232.446L383.242 234.196L385.593 236.012L387.865 237.893L390.048 239.839L392.131 241.849L394.102 243.92L395.953 246.05L397.672 248.237L399.251 250.476L400.681 252.764L401.955 255.097L403.065 257.469L404.005 259.876L404.77 262.312L405.355 264.771L405.756 267.247L405.972 269.734L406 272.226Z" stroke="black"/>
</g>
<defs>
<filter id="filter0_f_587_1221" x="-56" y="0" width="542" height="515" filterUnits="userSpaceOnUse" color-interpolation-filters="sRGB">
<feFlood flood-opacity="0" result="BackgroundImageFix"/>
<feBlend mode="normal" in="SourceGraphic" in2="BackgroundImageFix" result="shape"/>
<feGaussianBlur stdDeviation="40" result="effect1_foregroundBlur_587_1221"/>
</filter>
</defs>
</svg>
